<?xml version="1.0" encoding="utf-8"?>
<!-- Generator: Adobe Illustrator 18.0.0, SVG Export Plug-In . SVG Version: 6.00 Build 0)  -->
<!DOCTYPE svg PUBLIC "-//W3C//DTD SVG 1.1//EN" "http://www.w3.org/Graphics/SVG/1.1/DTD/svg11.dtd">
<svg xmlns="http://www.w3.org/2000/svg" xmlns:xlink="http://www.w3.org/1999/xlink" version="1.1" id="Слой_1" x="0px" y="0px" viewBox="0 0 128 128" enable-background="new 0 0 128 128" xml:space="preserve" width="128px" height="128px">
<g>
	<g>
		<g>
			<g>
				<path fill="#F7F7FB" d="M85,9H24.7c-2.5,0-4.6,2.1-4.6,4.6v100.8c0,2.5,2.1,4.6,4.6,4.6h78.5c2.5,0,4.6-2.1,4.6-4.6V31.9L85,9      v18.3c0,2.5,2.1,4.6,4.6,4.6h18.3"/>
			</g>
		</g>
		<g>
			<path fill="#DEDFE6" d="M85.1,94.5H41c-1.7,0-3-1.3-3-3s1.3-3,3-3h44.1c1.7,0,3,1.3,3,3S86.8,94.5,85.1,94.5z"/>
		</g>
		<g>
			<path fill="#DEDFE6" d="M85.1,76.2H41c-1.7,0-3-1.3-3-3s1.3-3,3-3h44.1c1.7,0,3,1.3,3,3S86.8,76.2,85.1,76.2z"/>
		</g>
		<g>
			<path fill="#DEDFE6" d="M85.1,57.8H41c-1.7,0-3-1.3-3-3s1.3-3,3-3h44.1c1.7,0,3,1.3,3,3S86.8,57.8,85.1,57.8z"/>
		</g>
		<g>
			<g>
				<g>
					<g>
						
							<path fill="none" stroke="#464C55" stroke-width="6" stroke-linecap="round" stroke-linejoin="round" stroke-miterlimit="10" d="        M107.9,31.9"/>
					</g>
				</g>
			</g>
		</g>
	</g>
	<g>
		<g>
			<g>
				
					<path fill="none" stroke="#464C55" stroke-width="6" stroke-linecap="round" stroke-linejoin="round" stroke-miterlimit="10" d="      M107.9,31.9"/>
			</g>
		</g>
		<g>
			<path fill="#464C55" d="M110,29.8L87.1,6.9C86.5,6.4,85.6,6,84.7,6c0,0,0,0,0,0H24.7c-4.2,0-7.6,3.4-7.6,7.6v100.8     c0,4.2,3.4,7.6,7.6,7.6h78.6c4.2,0,7.6-3.4,7.6-7.6V31.9C110.9,31.1,110.5,30.3,110,29.8z M88,16.2l12.7,12.7H89.6     c-0.9,0-1.6-0.7-1.6-1.6V16.2z M104.8,114.4c0,0.9-0.7,1.6-1.6,1.6H24.7c-0.9,0-1.6-0.7-1.6-1.6V13.6c0-0.9,0.7-1.6,1.6-1.6h57.2     v15.3c0,4.2,3.4,7.6,7.6,7.6h15.3V114.4z"/>
		</g>
	</g>
</g>
</svg>
