<?xml version="1.0" encoding="utf-8"?>
<!-- Generator: Adobe Illustrator 18.0.0, SVG Export Plug-In . SVG Version: 6.00 Build 0)  -->
<!DOCTYPE svg PUBLIC "-//W3C//DTD SVG 1.1//EN" "http://www.w3.org/Graphics/SVG/1.1/DTD/svg11.dtd">
<svg xmlns="http://www.w3.org/2000/svg" xmlns:xlink="http://www.w3.org/1999/xlink" version="1.1" id="Слой_1" x="0px" y="0px" viewBox="0 0 128 128" enable-background="new 0 0 128 128" xml:space="preserve" width="128px" height="128px">
<g>
	<g>
		<g>
			<path fill="#FFFFFF" d="M17.1,113.1l36-8c1.7-0.4,3.3-1.3,4.5-2.5l52.9-52.9c3.6-3.6,3.6-9.4,0-13L91.1,17.4     c-3.6-3.6-9.4-3.6-13,0L25.2,70.3c-1.2,1.2-2.1,2.8-2.5,4.5l-7.8,36.1C14.4,112.2,15.8,113.6,17.1,113.1z"/>
		</g>
	</g>
	<g>
		<g>
			<g>
				<path fill="#FFFFFF" d="M104.1,56.3l6.5-6.5c3.6-3.6,3.6-9.4,0-13L91.2,17.3c-3.6-3.6-9.4-3.6-13,0l-6.5,6.5"/>
			</g>
		</g>
		<g>
			<g>
				<g>
					<path fill="#E1E0DF" d="M82.9,14.9c-1.2,0.2-2.3,0.7-3.3,1.3C80.6,15.6,81.8,15.1,82.9,14.9z"/>
				</g>
			</g>
			<g>
				<g>
					<path fill="#F8B0B4" d="M41.6,86.4L25.4,70.2l46.3-46.3l32.4,32.4l-46.3,46.3L41.6,86.4z"/>
				</g>
			</g>
			<g>
				<g>
					<path fill="#F37C7E" d="M41.6,86.4l46.3-46.3l16.2,16.2l-46.3,46.3L41.6,86.4z"/>
				</g>
			</g>
			<g opacity="0.1">
				<g>
					<g>
						<path fill="#101215" d="M51.3,96.2l52.8-52.8c3.6-3.6,3.6-9.4,0-13l6.5,6.5c3.6,3.6,3.6,9.4,0,13l-52.9,52.9        c-1.2,1.2-2.8,2.1-4.5,2.5l-36.1,7.8c-1.5,0.5-2.8-0.8-2.3-2.3l5.6-3.3l26.2-8.8C48.5,98.4,50,97.5,51.3,96.2z"/>
					</g>
				</g>
			</g>
			<g>
				<g>
					<path fill="#A8B2C6" d="M14.9,110.9l2.8-15.4l15,15l-15.6,2.7C15.8,113.6,14.4,112.2,14.9,110.9z"/>
				</g>
			</g>
			<g>
				<g>
					<path fill="#E1E0DF" d="M111.8,48.4c0.7-1,1.1-2.1,1.4-3.3C112.9,46.2,112.5,47.4,111.8,48.4z"/>
				</g>
			</g>
		</g>
		<g>
			<g>
				<line fill="none" x1="71.7" y1="23.9" x2="104.1" y2="56.3"/>
			</g>
		</g>
		<g>
			<g>
				<g>
					
						<path fill="none" stroke="#464C55" stroke-width="6" stroke-linecap="round" stroke-linejoin="round" stroke-miterlimit="10" d="       M87.9,40.1"/>
				</g>
			</g>
		</g>
	</g>
	<g>
		<g>
			<path fill="none" stroke="#464C55" stroke-width="6" stroke-linecap="round" stroke-linejoin="round" stroke-miterlimit="10" d="     M87.9,40.1"/>
		</g>
	</g>
	<g>
		<g>
			<path fill="#464C55" d="M13.2,114.8c-1.3-1.3-1.7-3.1-1.2-4.7l7.9-35.9c0.6-2.3,1.6-4.3,3.3-5.9L76,15.3     c4.7-4.7,12.4-4.8,17.2-0.1l19.4,19.4c4.7,4.7,4.7,12.5,0,17.3l-52.9,52.9c-1.6,1.6-3.7,2.8-5.9,3.3L17.9,116     C16.3,116.5,14.5,116.1,13.2,114.8z M89,19.5c-2.4-2.4-6.4-2.4-8.8,0L27.3,72.4c-0.8,0.8-1.4,1.8-1.6,3l-7.6,34.4l34.4-7.6     c1.1-0.3,2.2-0.8,3-1.6l52.9-52.9c2.4-2.4,2.4-6.4,0-8.8L89,19.5z"/>
		</g>
	</g>
</g>
</svg>
