<?xml version="1.0" encoding="utf-8"?>
<!-- Generator: Adobe Illustrator 18.0.0, SVG Export Plug-In . SVG Version: 6.00 Build 0)  -->
<!DOCTYPE svg PUBLIC "-//W3C//DTD SVG 1.1//EN" "http://www.w3.org/Graphics/SVG/1.1/DTD/svg11.dtd">
<svg xmlns="http://www.w3.org/2000/svg" xmlns:xlink="http://www.w3.org/1999/xlink" version="1.1" id="Слой_1" x="0px" y="0px" viewBox="0 0 128 128" enable-background="new 0 0 128 128" xml:space="preserve" width="128px" height="128px">
<g>
	<g>
		<g>
			<polygon fill="#FFFFFF" points="98.8,60.9 98.8,111 29.2,111 29.2,60.9 64,24.8    "/>
		</g>
	</g>
	<g>
		<g>
			<g>
				<g>
					<g>
						<polyline fill="#C7D7E2" points="40.3,111 40.3,71.8 59.6,71.8 59.6,111       "/>
					</g>
				</g>
				<g>
					<g>
						
							<path fill="none" stroke="#62345B" stroke-width="3" stroke-linecap="round" stroke-linejoin="round" stroke-miterlimit="10" d="        M64.6,97.9"/>
					</g>
				</g>
				<g>
					<g>
						<polygon fill="#C7D7E2" points="64,17 17.6,64 23.5,69.9 64,27.8 104.5,69.9 110.4,64 98.8,52.3 98.8,24.8 87.2,24.8         87.2,40.5       "/>
					</g>
				</g>
				<g>
					<g>
						<path fill="#C7D7E2" d="M48.5,58.2L48.5,58.2c3.1-17.4,27.8-17.4,30.9,0l0,0H48.5z"/>
					</g>
				</g>
				<g>
					<g>
						<path fill="#454B54" d="M98.8,114H29.2c-1.7,0-3-1.3-3-3V70.9l-4.7,0c-0.8,0-1.6-0.3-2.2-0.9l-3.9-3.9c-1.2-1.2-1.2-3,0-4.2        l46.4-47c1.1-1.1,3.1-1.1,4.3,0l18,18.3v-8.4c0-1.7,1.3-3,3-3h11.6c1.7,0,3,1.3,3,3V51l10.7,10.9c1.2,1.2,1.2,3,0,4.2        l-3.9,3.9c-0.6,0.6-1.3,0.9-2.1,0.9c0,0,0,0,0,0l-4.7,0V111C101.8,112.7,100.4,114,98.8,114z M32.2,108h63.5V67.9        c0-0.8,0.3-1.6,0.9-2.1c0.6-0.6,1.4-0.9,2.1-0.9l6.5,0l0.9-0.9l-9.5-9.6c-0.6-0.6-0.9-1.3-0.9-2.1V27.8h-5.6v12.7        c0,1.2-0.7,2.3-1.9,2.8c-1.1,0.5-2.4,0.2-3.3-0.7L64,21.3L21.9,64l0.9,0.9l6.5,0c0.8,0,1.6,0.3,2.1,0.9        c0.6,0.6,0.9,1.3,0.9,2.1V108z"/>
					</g>
				</g>
			</g>
			<g>
				<g>
					<rect x="68.4" y="71.8" fill="#C7D7E2" width="19.3" height="19.6"/>
				</g>
			</g>
		</g>
		<g>
			<g>
				<ellipse fill="#E3F3F7" cx="49.9" cy="81.6" rx="3.9" ry="3.9"/>
			</g>
		</g>
	</g>
	<g opacity="0.5">
		<g>
			<g>
				<g>
					<g>
						
							<path fill="none" stroke="#62345B" stroke-width="3" stroke-linecap="round" stroke-linejoin="round" stroke-miterlimit="10" d="        M64,97.9"/>
					</g>
				</g>
			</g>
		</g>
	</g>
</g>
</svg>
