<?xml version="1.0" encoding="iso-8859-1"?>
<!-- Generator: Adobe Illustrator 22.0.1, SVG Export Plug-In . SVG Version: 6.00 Build 0)  -->
<svg xmlns="http://www.w3.org/2000/svg" xmlns:xlink="http://www.w3.org/1999/xlink" version="1.1" id="Layer_1" x="0px" y="0px" viewBox="0 0 128 128" style="enable-background:new 0 0 128 128;" xml:space="preserve" width="128px" height="128px">
<g>
	<g>
	</g>
</g>
<path style="fill:#C7D6E2;" d="M100,113H28c-2.761,0-5-2.239-5-5V56c0-2.761,2.239-5,5-5h72c2.761,0,5,2.239,5,5v52  C105,110.761,102.761,113,100,113z"/>
<path style="fill:#E7ECF3;" d="M28,51c-2.761,0-5,2.239-5,5v26h82V56c0-2.761-2.239-5-5-5H28z"/>
<path style="fill:#F8E390;" d="M97,39C97,20.775,82.225,6,64,6S31,20.775,31,39v12h12V39c0-11.598,9.402-21,21-21s21,9.402,21,21v12  h12V39z"/>
<circle style="fill:#F6E5AB;" cx="64" cy="82" r="17"/>
<circle style="fill:#CD928D;" cx="64" cy="82" r="8"/>
<path style="fill:none;stroke:#444B54;stroke-width:6;stroke-linejoin:round;stroke-miterlimit:10;" d="M100,113H28  c-2.761,0-5-2.239-5-5V56c0-2.761,2.239-5,5-5h72c2.761,0,5,2.239,5,5v52C105,110.761,102.761,113,100,113z"/>
<path style="fill:none;stroke:#444B54;stroke-width:6;stroke-linecap:round;stroke-linejoin:round;stroke-miterlimit:10;" d="  M47.75,77C47.264,78.581,47,80.26,47,82c0,9.389,7.611,17,17,17s17-7.611,17-17s-7.611-17-17-17c-1.74,0-3.419,0.264-5,0.75"/>
<path style="fill:none;stroke:#444B54;stroke-width:6;stroke-linecap:round;stroke-linejoin:round;stroke-miterlimit:10;" d="M43,42  v-3c0-11.598,9.402-21,21-21s21,9.402,21,21v3"/>
<path style="fill:none;stroke:#444B54;stroke-width:6;stroke-linecap:round;stroke-linejoin:round;stroke-miterlimit:10;" d="M31,42  v-3C31,20.775,45.775,6,64,6s33,14.775,33,33v3"/>
</svg>
