<?xml version="1.0" encoding="utf-8"?>
<!-- Generator: Adobe Illustrator 18.0.0, SVG Export Plug-In . SVG Version: 6.00 Build 0)  -->
<!DOCTYPE svg PUBLIC "-//W3C//DTD SVG 1.1//EN" "http://www.w3.org/Graphics/SVG/1.1/DTD/svg11.dtd">
<svg xmlns="http://www.w3.org/2000/svg" xmlns:xlink="http://www.w3.org/1999/xlink" version="1.1" id="Слой_1" x="0px" y="0px" viewBox="0 0 128 128" enable-background="new 0 0 128 128" xml:space="preserve" width="128px" height="128px">
<g>
	<path fill="#B8ABC9" d="M102.2,30.8V109c0,5.5-4.5,10-10,10H35.8c-5.5,0-10-4.5-10-10V30.8"/>
	<path opacity="0.1" fill="#0C0F13" d="M87.2,30.8V109c0,5.5-4.5,10-10,10h15c5.5,0,10-4.5,10-10V30.8H87.2z"/>
	<path fill="#454B54" d="M50.8,49.6c-1.7,0-3,1.3-3,3v44.5c0,1.7,1.3,3,3,3s3-1.3,3-3V52.6C53.8,51,52.5,49.6,50.8,49.6z"/>
	<path fill="#454B54" d="M77.2,49.6c-1.7,0-3,1.3-3,3v44.5c0,1.7,1.3,3,3,3s3-1.3,3-3V52.6C80.2,51,78.8,49.6,77.2,49.6z"/>
	<path fill="#454B54" d="M14.9,33.8h7.9V109c0,7.2,5.8,13,13,13h56.4c7.2,0,13-5.8,13-13V33.8h7.9c1.7,0,3-1.3,3-3s-1.3-3-3-3H81.2   v-4.6C81.2,13.7,73.5,6,64,6c-4.6,0-8.9,1.8-12.1,5c-3.2,3.2-5,7.6-5,12.2l0,4.6H14.9c-1.7,0-3,1.3-3,3S13.3,33.8,14.9,33.8z    M92.2,116H35.8c-3.9,0-7-3.1-7-7V33.8h70.4V109C99.2,112.9,96,116,92.2,116z M64,12c6.2,0,11.2,5,11.2,11.2v4.6H52.8l0-4.6   c0-3,1.2-5.8,3.3-7.9S61,12,64,12z"/>
</g>
</svg>
